<svg width="209" height="82" viewBox="0 0 209 82" fill="none" xmlns="http://www.w3.org/2000/svg">
    <path opacity="0.7" d="M137.231 80.6727H163.847" stroke="#2FDBBC" stroke-width="159.698"
        stroke-linecap="round" />
    <path d="M169.382 46.0093C168.016 50.5119 158.04 55.8447 151.908 52.8415" stroke="black"
        stroke-width="2.66164" stroke-linecap="round" stroke-linejoin="round" />
    <circle cx="133.904" cy="41.4136" r="3.32705" fill="black" />
    <circle cx="161.851" cy="36.0904" r="3.32705" fill="black" />
    <path
        d="M28.7434 38.7626C49.1213 38.7984 48.5421 52.5693 26.2971 47.272C32.8083 49.0894 42.713 51.1707 39.6777 56.2735C36.6424 61.3764 24.9465 55.938 24.9465 55.938C33.2043 60.4416 35.3608 63.8508 32.5115 66.3226C31.2659 67.4031 29.1404 67.8265 26.6717 67.6304M85.3044 65.3366C58.6698 78.1376 52.1523 58.1578 50.0648 48.5569C47.9774 38.956 55.2297 11.3668 45.9766 9.98416C38.5351 8.87221 36.2201 18.3013 36.8017 33.0494C32.6952 31.1331 14.25 31.1522 10.1499 47.3984C7.01492 59.8201 18.6534 66.9933 26.6717 67.6304M80.5907 98.4494C57.1775 103.516 35.3185 95.7383 26.6717 67.6304"
        stroke="black" stroke-width="2.66164" stroke-linecap="round" stroke-linejoin="round" />
</svg>