<svg width="248" height="209" viewBox="0 0 248 209" fill="none" xmlns="http://www.w3.org/2000/svg">
    <path opacity="0.7" d="M126.606 74.7891H151.162" stroke="#A64CED" stroke-width="147.601"
        stroke-linecap="round" />
    <path d="M156.268 42.7514C155.008 46.913 145.805 51.8418 140.147 49.0661" stroke="black"
        stroke-width="2" stroke-linecap="round" stroke-linejoin="round" />
    <ellipse cx="123.537" cy="38.504" rx="3.06946" ry="3.07502" fill="black" />
    <ellipse cx="149.32" cy="33.5838" rx="3.06946" ry="3.07502" fill="black" />
    <path
        d="M139 146.374L126.062 208H83L89.2681 202.71C91.5707 200.766 93.0798 198.045 93.5091 195.063L100.86 144"
        stroke="black" stroke-width="2" stroke-linecap="round" stroke-linejoin="round" />
    <path
        d="M139 146.374V208H182L177.045 203.811C173.989 201.229 172.381 197.322 172.732 193.336L177.086 144"
        stroke="black" stroke-width="2" stroke-linecap="round" stroke-linejoin="round" />
    <path
        d="M26.518 36.0536C45.3183 36.0867 44.7839 48.8145 24.2611 43.9184C30.2683 45.5981 39.4061 47.5217 36.6058 52.2381C33.8055 56.9544 23.0151 51.928 23.0151 51.928C30.6336 56.0904 32.6231 59.2414 29.9944 61.5259C28.8453 62.5246 26.8843 62.9159 24.6068 62.7346M78.7001 60.6145C54.1275 72.4459 48.1146 53.9796 46.1888 45.1059C44.2629 36.2323 50.9537 10.733 42.417 9.45512C35.5516 8.4274 33.4159 17.1422 33.9525 30.7732C30.1639 29.002 13.1468 29.0197 9.36406 44.0352C6.47182 55.516 17.2092 62.1458 24.6068 62.7346M74.3513 91.2191C52.7508 95.9023 32.5841 88.7134 24.6068 62.7346"
        stroke="black" stroke-width="2" stroke-linecap="round" stroke-linejoin="round" />
    <path
        d="M191.682 92.6765C197.498 96.1101 201.091 96.9434 208.213 96.08C202.001 99.8771 199.211 102.181 195.955 106.716M203.47 54.2729C216.422 58.0077 242.202 70.1172 241.703 88.6768C241.356 101.569 231.989 110.519 223.106 115.745M199.169 130.335C204.635 134.621 217.023 141.389 222.847 134.178C225.066 131.431 224.943 129.018 223.617 126.997M223.106 115.745C219.202 118.043 215.391 119.621 212.48 120.498C216.122 121.461 221.46 123.712 223.617 126.997M223.106 115.745C229.646 118.155 228.271 125.418 223.617 126.997"
        stroke="black" stroke-width="2" stroke-linecap="round" stroke-linejoin="round" />
</svg>
    